<svg id="Layer_1" enable-background="new 0 0 512 512" viewBox="0 0 512 512" xmlns="http://www.w3.org/2000/svg"><g clip-rule="evenodd" fill-rule="evenodd"><g><path d="m229.261 350.882h27.599c3.874 0 7.034 3.159 7.034 7.034v67.337c0 3.874-3.16 7.034-7.034 7.034h-27.599c-3.874 0-7.034-3.159-7.034-7.034v-67.337c0-3.875 3.16-7.034 7.034-7.034z" fill="#fe646f"/><path d="m249.826 350.882h7.034c3.874 0 7.034 3.159 7.034 7.034v67.337c0 3.874-3.16 7.034-7.034 7.034h-7.034c3.874 0 7.034-3.159 7.034-7.034v-67.337c0-3.875-3.16-7.034-7.034-7.034z" fill="#fd4755"/><path d="m306.629 299.294h27.599c3.874 0 7.034 3.159 7.034 7.034v118.926c0 3.874-3.16 7.034-7.034 7.034h-27.599c-3.874 0-7.034-3.16-7.034-7.034v-118.927c.001-3.874 3.16-7.033 7.034-7.033z" fill="#ffe177"/><path d="m327.195 299.294h7.034c3.874 0 7.034 3.159 7.034 7.034v118.926c0 3.874-3.16 7.034-7.034 7.034h-7.034c3.874 0 7.034-3.16 7.034-7.034v-118.927c-.001-3.874-3.161-7.033-7.034-7.033z" fill="#ffd064"/><path d="m383.998 316.66h27.6c3.874 0 7.034 3.16 7.034 7.035v101.558c.001 3.875-3.159 7.035-7.034 7.035-9.2 0-18.4 0-27.6 0-3.874 0-7.034-3.16-7.034-7.035 0-40.952 0-60.605 0-101.558 0-3.875 3.16-7.035 7.034-7.035z" fill="#6cf5c2"/><path d="m404.563 316.66h7.034c3.874 0 7.034 3.16 7.034 7.035v101.558c.001 3.875-3.159 7.035-7.034 7.035h-7.034c3.874 0 7.034-3.16 7.034-7.035 0-40.952 0-60.605 0-101.558.001-3.875-3.159-7.035-7.034-7.035z" fill="#00e499"/><path d="m461.365 244.637h27.599c3.874 0 7.034 3.16 7.034 7.034v173.581c0 3.874-3.16 7.034-7.034 7.034h-27.599c-3.874 0-7.034-3.159-7.034-7.034v-173.581c.001-3.874 3.16-7.034 7.034-7.034z" fill="#8ac9fe"/><path d="m481.931 244.637h7.034c3.874 0 7.034 3.16 7.034 7.034v173.581c0 3.874-3.16 7.034-7.034 7.034h-7.034c3.874 0 7.034-3.159 7.034-7.034v-173.581c-.001-3.874-3.16-7.034-7.034-7.034z" fill="#60b7ff"/><path d="m247.966 299.643c-3.469 2.709-8.478 2.094-11.188-1.375-2.709-3.469-2.094-8.478 1.375-11.188l77.369-60.244c2.168-1.693 4.937-2.088 7.371-1.299l.004-.013 72.474 23.515 58.474-58.975-3.179.279c-4.401.38-8.277-2.88-8.656-7.281s2.881-8.277 7.281-8.656l25.186-2.209c4.401-.38 8.277 2.881 8.656 7.281.06.7.028 1.387-.086 2.049l-2.755 24.639c-.483 4.384-4.429 7.546-8.813 7.063s-7.546-4.429-7.062-8.813l.297-2.654-61.204 61.728c-2.046 2.272-5.311 3.258-8.406 2.252l-73.129-23.727z" fill="#a79ba7"/></g><g><path d="m115.446 360.464c4.388 6.258 9.549 11.935 15.344 16.892l-41.721 40.897-15.883-16.368z" fill="#a79ba7"/><path d="m123.488 373.698c.82 2.691 2.349 4.736 4.542 6.09l-41.445 41.172-5.076-5.561z" fill="#837683"/><path d="m36.238 471.336-17.925-18.473c-3.148-3.245-3.068-8.473.175-11.622l49.649-48.178c3.244-3.148 8.475-3.069 11.623.174l17.925 18.473c3.147 3.244 3.069 8.475-.175 11.622l-49.65 48.179c-3.244 3.147-8.474 3.07-11.622-.175z" fill="#f1ba84"/><path d="m97.729 415.992-49.649 48.177c-3.244 3.148-8.473 3.07-11.621-.175l-17.926-18.473c-.662-.683-1.182-1.454-1.559-2.274-1.643 3.07-1.208 6.992 1.338 9.616l17.926 18.473c3.148 3.245 8.377 3.322 11.622.174l49.649-48.177c2.561-2.485 3.15-6.268 1.735-9.348-.389.727-.894 1.405-1.515 2.007z" fill="#e3a76f"/><ellipse cx="183.196" cy="314.951" fill="#8ac9fe" rx="90.409" ry="90.409" transform="matrix(.707 -.707 .707 .707 -169.047 221.786)"/><path d="m183.196 224.542c49.932 0 90.409 40.478 90.409 90.409s-40.478 90.409-90.409 90.409c-1.472 0-2.934-.038-4.389-.108 47.893-2.289 86.021-41.842 86.021-90.301 0-48.46-38.128-88.012-86.021-90.302 1.455-.069 2.918-.107 4.389-.107z" fill="#60b7ff"/><ellipse cx="183.196" cy="314.951" fill="#eceff1" rx="68.657" ry="68.657" transform="matrix(.707 -.707 .707 .707 -169.047 221.786)"/><path d="m183.196 246.294c1.561 0 3.107.057 4.642.16-35.753 2.387-64.016 32.14-64.016 68.497 0 36.358 28.263 66.11 64.016 68.497-1.534.102-3.081.16-4.642.16-37.918 0-68.657-30.739-68.657-68.657s30.739-68.657 68.657-68.657z" fill="#d1d1d6"/></g><g><path d="m262.58 38.178c84.552 0 153.429 67.111 156.269 150.971.05 1.466-.444 2.744-1.463 3.798-1.019 1.055-2.282 1.591-3.749 1.591h-55.079c-2.773 0-5.056-2.165-5.204-4.934-2.562-47.911-42.225-85.973-90.775-85.973s-88.213 38.062-90.775 85.973c-.148 2.769-2.431 4.934-5.203 4.934h-55.079c-1.467 0-2.729-.536-3.748-1.591-1.019-1.054-1.513-2.333-1.463-3.798 2.84-83.86 71.717-150.971 156.269-150.971z" fill="#6cf5c2"/><path d="m127.146 116.345 56.694 32.732c7.982-13.795 19.484-25.298 33.279-33.28 13.373-7.738 28.9-12.167 45.461-12.167v-65.452c-28.485 0-55.192 7.617-78.193 20.926-23.728 13.729-43.513 33.514-57.241 57.241z" fill="#00e499"/><path d="m184.387 59.104 32.732 56.694c13.373-7.738 28.9-12.167 45.461-12.167 16.561 0 32.088 4.429 45.461 12.167l32.732-56.694c-23.001-13.308-49.707-20.925-78.193-20.925-28.486-.001-55.192 7.617-78.193 20.925z" fill="#ffe177"/><path d="m262.579 38.178v65.452c16.561 0 32.088 4.429 45.461 12.167 13.795 7.982 25.298 19.484 33.279 33.279l56.694-32.732c-13.729-23.727-33.514-43.512-57.241-57.241-23.001-13.308-49.707-20.925-78.193-20.925z" fill="#ffd064"/><path d="m340.772 59.104-32.732 56.694c13.795 7.982 25.298 19.484 33.279 33.279 6.964 12.036 11.248 25.818 12.035 40.528.148 2.769 2.431 4.934 5.203 4.934h55.079c1.467 0 2.729-.536 3.749-1.591 1.019-1.055 1.513-2.333 1.463-3.798-.896-26.464-8.369-51.26-20.835-72.805-13.728-23.728-33.513-43.513-57.241-57.241z" fill="#fe646f"/><path d="m398.014 116.345-56.694 32.732c6.964 12.036 11.248 25.818 12.035 40.528.148 2.769 2.431 4.934 5.203 4.934h55.079c1.467 0 2.729-.536 3.749-1.591 1.019-1.055 1.513-2.333 1.463-3.798-.896-26.465-8.369-51.26-20.835-72.805z" fill="#fd4755"/><path d="m268.236 200.191c-3.124 3.124-8.189 3.124-11.312 0-3.124-3.124-3.124-8.189 0-11.313l34.712-34.712c3.124-3.124 8.189-3.124 11.312 0s3.124 8.189 0 11.312z" fill="#9facba"/><path d="m262.58 213.049c10.198 0 18.515-8.317 18.515-18.515s-8.317-18.515-18.515-18.515c-10.197 0-18.515 8.317-18.515 18.515 0 10.199 8.317 18.515 18.515 18.515z" fill="#9facba"/><path d="m262.58 176.02c10.226 0 18.515 8.289 18.515 18.515s-8.289 18.515-18.515 18.515c-.974 0-1.93-.076-2.864-.221 8.866-1.376 15.651-9.042 15.651-18.294 0-9.251-6.786-16.917-15.651-18.294.933-.145 1.89-.221 2.864-.221z" fill="#8d9ca8"/></g></g></svg>