<svg id="Layer_1" enable-background="new 0 0 512 512" viewBox="0 0 512 512" xmlns="http://www.w3.org/2000/svg"><path d="m106.224 202.533h65.452c4.418 0 8-3.582 8-8 0-45.714 37.191-82.905 82.905-82.905s82.905 37.191 82.905 82.905c0 4.418 3.582 8 8 8h65.453c4.418 0 8-3.582 8-8 0-90.626-73.73-164.356-164.357-164.356s-164.358 73.73-164.358 164.356c0 4.418 3.582 8 8 8zm164.357-156.137c21.186 1.131 41.202 6.73 59.13 15.865l-24.774 42.909c-10.562-5.027-22.149-8.233-34.356-9.215zm-16 49.559c-12.207.982-23.793 4.188-34.356 9.215l-24.773-42.909c17.927-9.135 37.944-14.733 59.129-15.865zm106.584 90.578c-.982-12.208-4.195-23.793-9.222-34.356l42.912-24.776c9.136 17.928 14.74 37.944 15.871 59.132zm25.675-72.979-42.919 24.78c-6.801-9.813-15.328-18.342-25.141-25.143l24.776-42.913c17.243 11.275 32.009 26.034 43.284 43.276zm-205.235-43.275 24.776 42.912c-9.813 6.801-18.34 15.33-25.141 25.143l-42.918-24.779c11.275-17.242 26.041-32.002 43.283-43.276zm-51.298 57.123 42.911 24.775c-5.027 10.563-8.24 22.149-9.222 34.356h-49.559c1.13-21.187 6.735-41.203 15.87-59.131zm172.643 26.762c-3.124-3.122-8.189-3.123-11.313 0l-18.681 18.68c-3.143-1.509-6.661-2.356-10.375-2.356-13.258 0-24.045 10.786-24.045 24.045s10.787 24.045 24.045 24.045 24.044-10.786 24.044-24.045c0-3.713-.847-7.232-2.356-10.375l18.68-18.68c3.125-3.124 3.126-8.189.001-11.314zm-40.368 48.414c-4.436 0-8.045-3.609-8.045-8.045s3.609-8.045 8.045-8.045 8.044 3.609 8.044 8.045-3.609 8.045-8.044 8.045zm78.681 88.715h-41.667c-4.418 0-8 3.582-8 8v132.993c0 4.418 3.582 8 8 8h41.667c4.418 0 8-3.582 8-8v-132.993c0-4.418-3.581-8-8-8zm-8 132.993h-25.667v-116.993h25.667zm85.369-115.627h-41.667c-4.418 0-8 3.582-8 8v115.627c0 4.418 3.582 8 8 8h41.667c4.418 0 8-3.582 8-8v-115.627c0-4.418-3.581-8-8-8zm-8 115.627h-25.667v-99.627h25.667zm85.368-187.65h-41.667c-4.418 0-8 3.582-8 8v187.649c0 4.418 3.582 8 8 8h41.667c4.418 0 8-3.582 8-8v-187.649c0-4.418-3.582-8-8-8zm-8 187.649h-25.667v-171.649h25.667zm-213.259-145.454 47.256-36.797 73.109 23.721c2.872.932 6.024.167 8.149-1.977l61.441-61.966-.289 2.588c-.491 4.391 2.67 8.349 7.062 8.839.302.034.602.051.898.051 4.02 0 7.483-3.023 7.94-7.112l2.809-25.126c.267-2.384-.55-4.762-2.227-6.478-1.676-1.716-4.034-2.591-6.423-2.381l-25.186 2.209c-4.401.387-7.656 4.268-7.27 8.669s4.257 7.644 8.668 7.271l3.13-.275-58.45 58.949-72.462-23.511c-2.522-.82-5.289-.333-7.384 1.297l-48.031 37.4c-17.248-28.541-48.576-47.663-84.287-47.663-54.264 0-98.41 44.146-98.41 98.41 0 18.513 5.142 35.847 14.068 50.654l-18.9 18.34c-1.836-.742-3.809-1.157-5.852-1.188-4.354-.1-8.437 1.558-11.539 4.567l-49.649 48.179c-3.102 3.011-4.846 7.058-4.912 11.395-.065 4.339 1.557 8.437 4.567 11.539l17.925 18.474c3.175 3.272 7.406 4.916 11.642 4.916 4.071 0 8.147-1.52 11.293-4.571l49.648-48.177c3.103-3.011 4.848-7.058 4.914-11.397.031-2.042-.326-4.027-1.012-5.885l18.051-17.516c16.306 11.988 36.421 19.082 58.166 19.082 10.839 0 21.271-1.766 31.032-5.017v23.941c0 4.418 3.582 8 8 8h41.667c4.418 0 8-3.582 8-8v-74.722c6.223-12.9 9.712-27.357 9.712-42.613.002-12.745-2.434-24.931-6.864-36.119zm-161.835 104.919-16.073 15.597-4.741-4.886 16.219-15.738c1.473 1.728 3.006 3.405 4.595 5.027zm-20.969 33.844-49.649 48.177c-.073.072-.239.069-.311-.004l-17.926-18.474c-.016-.017-.053-.055-.051-.154.001-.102.041-.139.057-.154l49.65-48.18c.015-.014.053-.051.149-.051.08-.028.146.04.16.056l17.925 18.473c.015.016.054.056.052.157-.001.1-.04.138-.056.154zm8.849-102.644c0-45.441 36.969-82.41 82.41-82.41s82.411 36.969 82.411 82.41-36.969 82.411-82.411 82.411c-45.441 0-82.41-36.969-82.41-82.411zm155.109 109.335h-25.667v-22.91c9.644-5.27 18.314-12.106 25.667-20.165zm-72.699-185.993c-42.269 0-76.658 34.389-76.658 76.658s34.389 76.658 76.658 76.658c42.27 0 76.658-34.389 76.658-76.658s-34.388-76.658-76.658-76.658zm0 137.316c-33.447 0-60.658-27.211-60.658-60.658s27.211-60.658 60.658-60.658 60.658 27.211 60.658 60.658-27.21 60.658-60.658 60.658z"/></svg>