<svg id="flat" height="512" viewBox="0 0 64 64" width="512" xmlns="http://www.w3.org/2000/svg"><rect fill="#ffeecf" height="58" rx="4" width="36" x="3" y="3"/><path d="m39 43v14a4 4 0 0 1 -4 4h-28a4 4 0 0 1 -4-4v-50a4 4 0 0 1 4-4h10v28a12 12 0 0 0 12 12z" fill="#ffc688"/><path d="m13 7v2a2 2 0 0 0 2 2h14a2 2 0 0 0 2-2v-2h2a2 2 0 0 1 2 2v46a2 2 0 0 1 -2 2h-24a2 2 0 0 1 -2-2v-46a2 2 0 0 1 2-2z" fill="#7dd9ef"/><path d="m35 43v12a2 2 0 0 1 -2 2h-24a2 2 0 0 1 -2-2v-46a2 2 0 0 1 2-2h4v2a2 2 0 0 0 2 2h2v20a12 12 0 0 0 12 12z" fill="#59c9ef"/><path d="m18.08 31.5h2a0 0 0 0 1 0 0v12a0 0 0 0 1 0 0h-2a6 6 0 0 1 -6-6 6 6 0 0 1 6-6z" fill="#f75c68" transform="matrix(.866 -.5 .5 .866 -16.6 13.06)"/><path d="m18.88 26h10v14h-10z" fill="#ffeecf" transform="matrix(.866 -.5 .5 .866 -13.3 16.36)"/><path d="m56.26 35.09a34 34 0 0 0 -15.49-1.45 29.45 29.45 0 0 0 -9.06 2.92l-7-12.12a29.37 29.37 0 0 0 7.06-6.39 34 34 0 0 0 6.49-14.14z" fill="#f75c68"/><path d="m46.86 13h1a5 5 0 0 1 5 5 5 5 0 0 1 -5 5h-1a0 0 0 0 1 0 0v-10a0 0 0 0 1 0 0z" fill="#ffeecf" transform="matrix(.866 -.5 .5 .866 -2.32 27.34)"/><path d="m22.55 40.7-1.74 1a6 6 0 0 1 -9-5.2 5.25 5.25 0 0 1 0-.56c.77 0 1.55.06 2.33.06a47.29 47.29 0 0 0 5.48-.32z" fill="#ff1f1f"/><path d="m31.71 36.56-8.66 5-.5-.86-2.9-5a46.65 46.65 0 0 0 10.19-2.36c.62 1.06 1.24 2.14 1.87 3.22z" fill="#ffc688"/><path d="m56.26 35.09a34 34 0 0 0 -15.49-1.45 29.45 29.45 0 0 0 -9.06 2.92c-.63-1.08-1.25-2.16-1.87-3.24a46.9 46.9 0 0 0 18.46-12l1.46 2.52z" fill="#ff1f1f"/><path d="m53.13 19a5 5 0 0 1 -2.51 4.33l-.86.5-1.46-2.52a46 46 0 0 0 4.08-4.93l.07.12a5 5 0 0 1 .68 2.5z" fill="#ffc688"/><path d="m35.84 45.72-5.39 3.11-6.54-7.77 5.39-3.11z" fill="#ff1f1f"/><g fill="#f75c68"><path d="m55.92 15.5a1 1 0 0 1 -.5-1.87l3.46-2a1 1 0 0 1 1 1.74l-3.46 2a1 1 0 0 1 -.5.13z"/><path d="m50.45 11.31a.82.82 0 0 1 -.26 0 1 1 0 0 1 -.7-1.22l1-3.87a1 1 0 0 1 1.23-.7 1 1 0 0 1 .7 1.22l-1 3.87a1 1 0 0 1 -.97.7z"/><path d="m60.68 23.36h-.26l-3.86-1a1 1 0 1 1 .52-1.93l3.86 1a1 1 0 0 1 -.26 2z"/></g></svg>